M48
;Layer_Color=9474304
;FILE_FORMAT=2:5
INCH,TZ
;TYPE=PLATED
T1F00S00C0.01968
T2F00S00C0.02800
T3F00S00C0.03937
T4F00S00C0.04331
T5F00S00C0.05906
T6F00S00C0.06299
T7F00S00C0.07874
T8F00S00C0.12598
T9F00S00C0.13780
T10F00S00C0.17717
%
T01
X7752Y-164370
X5906Y-157480
X12795Y-169414
X19685Y-171260
X26575Y-169414
X31618Y-164370
X33465Y-157480
X163386
X165232Y-164370
X170276Y-169414
X177165Y-171260
X184055Y-169414
X189099Y-164370
X190945Y-157480
X320866
X322712Y-164370
X327756Y-169414
X334646Y-171260
X341535Y-169414
X346579Y-164370
X348425Y-157480
X360236
X362082Y-164370
X367126Y-169414
X374016Y-171260
X380906Y-169414
X385949Y-164370
X387795Y-157480
X385949Y-150591
X380906Y-145547
X374016Y-143701
X374015Y-136812
X367125Y-134966
X362081Y-129922
X360235Y-123032
X362081Y-116143
X367125Y-111099
X374015Y-109253
X380905Y-111099
X385948Y-116143
X387794Y-123032
X385948Y-129922
X380905Y-134966
X367126Y-145547
X362082Y-150591
X346579
X341535Y-145547
X334646Y-143701
X334645Y-136812
X327755Y-134966
X322711Y-129922
X320865Y-123032
X322711Y-116143
X327755Y-111099
X334645Y-109253
X341534Y-111099
X346578Y-116143
X348424Y-123032
X346578Y-129922
X341534Y-134966
X327756Y-145547
X322712Y-150591
X342397Y-31496
X340551Y-24606
X342397Y-17717
X347441Y-12673
X354331Y-10827
X361221Y-12673
X366264Y-17717
X368110Y-24606
X366264Y-31496
X361221Y-36540
X354331Y-38386
X347441Y-36540
X210580Y-40404
X212598Y-45276
X210580Y-50147
X205709Y-52165
X200837Y-50147
X198819Y-45276
X200837Y-40404
X205709Y-38386
Y-59842
X200837Y-61861
X198819Y-66732
X200837Y-71604
X205709Y-73622
X210580Y-71604
X212598Y-66732
X210580Y-107333
X205709Y-105315
X200837Y-107333
X198819Y-112205
X200837Y-117077
X205709Y-119095
X210580Y-117077
X212598Y-112205
Y-133661
X210580Y-138533
X205709Y-140551
X200837Y-138533
X198819Y-133661
X200837Y-128790
X205709Y-126772
X189099Y-150591
X184055Y-145547
X177165Y-143701
X170276Y-145547
X165232Y-150591
X31618
X26575Y-145547
X19685Y-143701
X12795Y-145547
X7752Y-150591
Y-65945
X5906Y-59055
X7752Y-52165
X12795Y-47122
X19685Y-45276
X26575Y-47122
X31618Y-52165
X33465Y-59055
X31618Y-65945
X26575Y-70989
X19685Y-72835
X12795Y-70989
Y47122
X19685Y45276
X26575Y47122
X31618Y52165
X33465Y59055
X31618Y65945
X26575Y70989
X19685Y72835
X12795Y70989
X7752Y65945
X5906Y59055
X7752Y52165
Y150591
X5906Y157480
X12795Y145547
X19685Y143701
X26575Y145547
X31618Y150591
X33465Y157480
X163386
X165232Y150591
X170276Y145547
X177165Y143701
X184055Y145547
X189099Y150591
X190945Y157480
X200837Y117077
X205709Y119095
X210580Y117077
X212598Y112205
X210580Y107333
X205709Y105315
X200837Y107333
X198819Y112205
X200837Y95620
X198819Y90748
X200837Y85876
X205709Y83858
X210580Y85876
X212598Y90748
X205709Y97638
Y52165
X210580Y50147
X212598Y45276
X210580Y40404
X205709Y38386
X200837Y40404
X198819Y45276
X200837Y50147
Y28691
X205709Y30709
X212598Y23819
X210580Y18947
X205709Y16929
X200837Y18947
X198819Y23819
X326772Y87598
Y93504
Y99410
Y105315
X367126Y145547
X374016Y143701
X380906Y145547
X385949Y150591
X387795Y157480
X360236
X362082Y150591
Y164370
X367126Y169414
X374016Y171260
X380906Y169414
X385949Y164370
X189099Y164370
X184055Y169414
X177165Y171260
X170276Y169414
X165232Y164370
X31618
X26575Y169414
X19685Y171260
X12795Y169414
X7752Y164370
T02
X148622Y-86811
X156496
X159449Y-43307
Y-35433
X166732Y-33465
Y-39370
Y-45276
X114173Y-3937
X108268
X102362
Y3937
X108268
X114173
X160039Y33465
Y39370
Y45276
X167323Y43307
Y35433
X156496Y86811
X148622
T03
X130905Y-162402
X130905Y-54134
X177165Y-66929
Y-96457
Y-7874
X147638Y0
X39370
X177165Y7874
Y66929
Y96457
X130905Y54134
X130905Y162402
T04
X335551Y21929
Y31929
Y41929
Y51929
Y61929
Y71929
Y81929
Y91929
Y101929
Y111929
X345551
Y101929
Y91929
Y81929
Y71929
Y61929
Y51929
Y41929
Y31929
Y21929
T05
X329330Y-71851
X379330
T06
X205709Y-133661
Y-112205
Y-90748
Y-66732
Y-45276
Y-23819
Y23819
Y45276
Y66732
Y90748
Y112205
Y133661
T07
X68898Y-123031
X93504Y-127953
Y-88583
X68898Y-83661
X49213Y-19685
Y19685
X68898Y83661
X93504Y88583
Y127953
X68898Y123031
T08
X232283Y-137795
Y-78740
Y78740
Y137795
T09
X334645Y-123032
X374015
X354330Y-24607
T10
X19685Y-157480
X177165
X334646
X374016
X19685Y-59055
Y59055
Y157480
X177165
X334646Y157480
X374016
M30
