G04 Layer_Color=8388736*
%FSLAX25Y25*%
%MOIN*%
G70*
G01*
G75*
%ADD21C,0.00394*%
%ADD47R,0.09068X0.09855*%
%ADD48R,0.06115X0.14186*%
%ADD49R,0.09855X0.09855*%
%ADD50R,0.05131X0.05524*%
%ADD51C,0.24422*%
%ADD52C,0.10642*%
%ADD53C,0.34265*%
%ADD54C,0.18516*%
%ADD55C,0.12611*%
%ADD56R,0.07099X0.07099*%
%ADD57C,0.07099*%
%ADD58C,0.13398*%
%ADD59R,0.12611X0.12611*%
%ADD60C,0.04737*%
D21*
X0Y-177165D02*
X393701D01*
X0D02*
Y177165D01*
X393701Y-177165D02*
Y177165D01*
X0D02*
X393701D01*
D47*
X270866Y-110236D02*
D03*
X288189D02*
D03*
X270866Y114173D02*
D03*
X288189D02*
D03*
Y-43307D02*
D03*
X270866D02*
D03*
X288189Y47244D02*
D03*
X270866D02*
D03*
D48*
X291240Y-94488D02*
D03*
X267815D02*
D03*
X291240Y-78740D02*
D03*
X267815D02*
D03*
X291240Y129921D02*
D03*
X267815D02*
D03*
X291240Y145669D02*
D03*
X267815D02*
D03*
X291240Y-11811D02*
D03*
X267815D02*
D03*
X291240Y-27559D02*
D03*
X267815D02*
D03*
X291240Y78740D02*
D03*
X267815D02*
D03*
X291240Y62992D02*
D03*
X267815D02*
D03*
D49*
X256890Y-125984D02*
D03*
Y-108268D02*
D03*
Y98425D02*
D03*
Y116142D02*
D03*
Y-59055D02*
D03*
Y-41339D02*
D03*
Y31496D02*
D03*
Y49213D02*
D03*
D50*
X309252Y47244D02*
D03*
X297047D02*
D03*
X309252Y-43307D02*
D03*
X297047D02*
D03*
X309252Y114173D02*
D03*
X297047D02*
D03*
X309252Y-110236D02*
D03*
X297047D02*
D03*
D51*
X354330Y-24607D02*
D03*
X374015Y-123032D02*
D03*
X334645D02*
D03*
D52*
X379330Y-71851D02*
D03*
X329330D02*
D03*
D53*
X334646Y-157480D02*
D03*
X374016D02*
D03*
X177165D02*
D03*
Y157480D02*
D03*
X19685Y-157480D02*
D03*
Y157480D02*
D03*
X374016Y157480D02*
D03*
X19685Y59055D02*
D03*
Y-59055D02*
D03*
D54*
X334646Y157480D02*
D03*
D55*
X130905Y-162402D02*
D03*
X130905Y162402D02*
D03*
X205709Y-133661D02*
D03*
Y-112205D02*
D03*
Y112205D02*
D03*
Y90748D02*
D03*
Y23819D02*
D03*
Y45276D02*
D03*
Y-45276D02*
D03*
Y-66732D02*
D03*
X147638Y0D02*
D03*
X39370D02*
D03*
X93504Y88583D02*
D03*
X68898Y83661D02*
D03*
X49213Y-19685D02*
D03*
X68898Y-123031D02*
D03*
X93504Y-127953D02*
D03*
X130905Y54134D02*
D03*
Y-54134D02*
D03*
X177165Y96457D02*
D03*
Y66929D02*
D03*
Y7874D02*
D03*
Y-96457D02*
D03*
Y-66929D02*
D03*
Y-7874D02*
D03*
D56*
X335551Y111929D02*
D03*
D57*
X345551D02*
D03*
X335551Y101929D02*
D03*
X345551D02*
D03*
X335551Y91929D02*
D03*
X345551D02*
D03*
X335551Y81929D02*
D03*
X345551D02*
D03*
X335551Y71929D02*
D03*
X345551D02*
D03*
X335551Y61929D02*
D03*
X345551D02*
D03*
X335551Y51929D02*
D03*
X345551D02*
D03*
X335551Y41929D02*
D03*
X345551D02*
D03*
X335551Y31929D02*
D03*
X345551D02*
D03*
X335551Y21929D02*
D03*
X345551D02*
D03*
D58*
X232283Y-78740D02*
D03*
Y-137795D02*
D03*
Y137795D02*
D03*
Y78740D02*
D03*
D59*
X205709Y-90748D02*
D03*
Y133661D02*
D03*
Y66732D02*
D03*
Y-23819D02*
D03*
X93504Y127953D02*
D03*
X68898Y123031D02*
D03*
X49213Y19685D02*
D03*
X68898Y-83661D02*
D03*
X93504Y-88583D02*
D03*
D60*
X341535Y-145547D02*
D03*
X348425Y-157480D02*
D03*
X346579Y-150591D02*
D03*
Y-164370D02*
D03*
X334646Y-171260D02*
D03*
X341535Y-169414D02*
D03*
X327756D02*
D03*
X320866Y-157480D02*
D03*
X322712Y-164370D02*
D03*
X327756Y-145547D02*
D03*
X334646Y-143701D02*
D03*
X322712Y-150591D02*
D03*
X380906Y-145547D02*
D03*
X387795Y-157480D02*
D03*
X385949Y-150591D02*
D03*
Y-164370D02*
D03*
X374016Y-171260D02*
D03*
X380906Y-169414D02*
D03*
X367126D02*
D03*
X360236Y-157480D02*
D03*
X362082Y-164370D02*
D03*
Y-150591D02*
D03*
X374016Y-143701D02*
D03*
X367126Y-145547D02*
D03*
X165232Y-150591D02*
D03*
X177165Y-143701D02*
D03*
X170276Y-145547D02*
D03*
X165232Y-164370D02*
D03*
X163386Y-157480D02*
D03*
X170276Y-169414D02*
D03*
X184055D02*
D03*
X177165Y-171260D02*
D03*
X189099Y-164370D02*
D03*
Y-150591D02*
D03*
X190945Y-157480D02*
D03*
X184055Y-145547D02*
D03*
X7752Y164370D02*
D03*
X19685Y171260D02*
D03*
X12795Y169414D02*
D03*
X7752Y150591D02*
D03*
X5906Y157480D02*
D03*
X12795Y145547D02*
D03*
X26575D02*
D03*
X19685Y143701D02*
D03*
X31618Y150591D02*
D03*
Y164370D02*
D03*
X33465Y157480D02*
D03*
X26575Y169414D02*
D03*
X165232Y164370D02*
D03*
X177165Y171260D02*
D03*
X170276Y169414D02*
D03*
X165232Y150591D02*
D03*
X163386Y157480D02*
D03*
X170276Y145547D02*
D03*
X184055D02*
D03*
X177165Y143701D02*
D03*
X189099Y150591D02*
D03*
Y164370D02*
D03*
X190945Y157480D02*
D03*
X184055Y169414D02*
D03*
X380906Y169414D02*
D03*
X387795Y157480D02*
D03*
X385949Y164370D02*
D03*
Y150591D02*
D03*
X374016Y143701D02*
D03*
X380906Y145547D02*
D03*
X367126D02*
D03*
X360236Y157480D02*
D03*
X362082Y150591D02*
D03*
X367126Y169414D02*
D03*
X374016Y171260D02*
D03*
X362082Y164370D02*
D03*
X7752Y65945D02*
D03*
X19685Y72835D02*
D03*
X12795Y70989D02*
D03*
X7752Y52165D02*
D03*
X5906Y59055D02*
D03*
X12795Y47122D02*
D03*
X26575D02*
D03*
X19685Y45276D02*
D03*
X31618Y52165D02*
D03*
Y65945D02*
D03*
X33465Y59055D02*
D03*
X26575Y70989D02*
D03*
X7752Y-52165D02*
D03*
X19685Y-45276D02*
D03*
X12795Y-47122D02*
D03*
X7752Y-65945D02*
D03*
X5906Y-59055D02*
D03*
X12795Y-70989D02*
D03*
X26575D02*
D03*
X19685Y-72835D02*
D03*
X31618Y-65945D02*
D03*
Y-52165D02*
D03*
X33465Y-59055D02*
D03*
X26575Y-47122D02*
D03*
M02*
