G04 Layer_Color=32896*
%FSLAX25Y25*%
%MOIN*%
G70*
G01*
G75*
%ADD21C,0.00394*%
%ADD37C,0.00787*%
%ADD44C,0.00800*%
%ADD66R,0.13386X0.05905*%
%ADD67R,0.10236X0.20866*%
%ADD68R,0.20866X0.10236*%
%ADD69R,0.05905X0.13386*%
D21*
X0Y-177165D02*
X393701D01*
X0D02*
Y177165D01*
X393701Y-177165D02*
Y177165D01*
X0D02*
X393701D01*
D37*
X246555Y-78740D02*
G03*
X246555Y-78740I-14272J0D01*
G01*
Y-137795D02*
G03*
X246555Y-137795I-14272J0D01*
G01*
Y137795D02*
G03*
X246555Y137795I-14272J0D01*
G01*
Y78740D02*
G03*
X246555Y78740I-14272J0D01*
G01*
X118701Y-19488D02*
Y-9252D01*
X97835Y-19488D02*
Y-9252D01*
Y9252D02*
Y19488D01*
X118701Y9252D02*
Y19488D01*
X172441Y46063D02*
X178347D01*
X172441Y32677D02*
X178347D01*
X144488Y28937D02*
X154724D01*
X144488Y49803D02*
X154724D01*
X159252Y75787D02*
Y81693D01*
X145866Y75787D02*
Y81693D01*
X172047Y-28937D02*
X182283D01*
X172047Y-49803D02*
X182283D01*
X148425Y-46063D02*
X154331D01*
X148425Y-32677D02*
X154331D01*
X145866Y-81693D02*
Y-75787D01*
X159252Y-81693D02*
Y-75787D01*
D44*
X151195Y56331D02*
X152028Y57164D01*
X153694D01*
X154528Y56331D01*
Y52998D01*
X153694Y52165D01*
X152028D01*
X151195Y52998D01*
X147030Y52165D02*
Y57164D01*
X149529Y54664D01*
X146197D01*
X153164Y-26346D02*
X153997Y-25513D01*
X155663D01*
X156496Y-26346D01*
Y-29679D01*
X155663Y-30512D01*
X153997D01*
X153164Y-29679D01*
X148165Y-25513D02*
X151498D01*
Y-28013D01*
X149831Y-27180D01*
X148998D01*
X148165Y-28013D01*
Y-29679D01*
X148998Y-30512D01*
X150665D01*
X151498Y-29679D01*
X127573Y-13551D02*
X128406Y-12718D01*
X130072D01*
X130905Y-13551D01*
Y-16883D01*
X130072Y-17717D01*
X128406D01*
X127573Y-16883D01*
X122575Y-12718D02*
X124241Y-13551D01*
X125907Y-15217D01*
Y-16883D01*
X125074Y-17717D01*
X123408D01*
X122575Y-16883D01*
Y-16050D01*
X123408Y-15217D01*
X125907D01*
X140172Y-77528D02*
X141005Y-76695D01*
X142671D01*
X143504Y-77528D01*
Y-80860D01*
X142671Y-81693D01*
X141005D01*
X140172Y-80860D01*
X138506Y-76695D02*
X135173D01*
Y-77528D01*
X138506Y-80860D01*
Y-81693D01*
X130526Y15976D02*
X131359Y16809D01*
X133025D01*
X133858Y15976D01*
Y12644D01*
X133025Y11811D01*
X131359D01*
X130526Y12644D01*
X128860Y11811D02*
X127194D01*
X128027D01*
Y16809D01*
X128860Y15976D01*
X124695Y11811D02*
X123028D01*
X123862D01*
Y16809D01*
X124695Y15976D01*
X157580Y99387D02*
X158413Y100220D01*
X160079D01*
X160912Y99387D01*
Y96054D01*
X160079Y95221D01*
X158413D01*
X157580Y96054D01*
X155913Y95221D02*
X154247D01*
X155080D01*
Y100220D01*
X155913Y99387D01*
X148416Y95221D02*
X151748D01*
X148416Y98554D01*
Y99387D01*
X149249Y100220D01*
X150915D01*
X151748Y99387D01*
X182691Y-22410D02*
X183524Y-21576D01*
X185191D01*
X186024Y-22410D01*
Y-25742D01*
X185191Y-26575D01*
X183524D01*
X182691Y-25742D01*
X181025Y-26575D02*
X179359D01*
X180192D01*
Y-21576D01*
X181025Y-22410D01*
X176860D02*
X176027Y-21576D01*
X174361D01*
X173528Y-22410D01*
Y-23243D01*
X174361Y-24076D01*
X175194D01*
X174361D01*
X173528Y-24909D01*
Y-25742D01*
X174361Y-26575D01*
X176027D01*
X176860Y-25742D01*
X178754Y52394D02*
X179587Y53227D01*
X181254D01*
X182087Y52394D01*
Y49061D01*
X181254Y48228D01*
X179587D01*
X178754Y49061D01*
X177088Y48228D02*
X175422D01*
X176255D01*
Y53227D01*
X177088Y52394D01*
X170424Y48228D02*
Y53227D01*
X172923Y50727D01*
X169591D01*
D66*
X152559Y-78740D02*
D03*
Y78740D02*
D03*
D67*
X177165Y-39370D02*
D03*
X149606Y39370D02*
D03*
D68*
X108268Y14370D02*
D03*
Y-14370D02*
D03*
D69*
X151378Y-39370D02*
D03*
X175394Y39370D02*
D03*
M02*
