G04 Layer_Color=16711935*
%FSLAX25Y25*%
%MOIN*%
G70*
G01*
G75*
%ADD21C,0.00394*%
D21*
X292520Y-101181D02*
Y-87795D01*
X266535Y-101181D02*
Y-87795D01*
Y-101181D02*
X292520D01*
X266535Y-87795D02*
X292520D01*
Y-85433D02*
Y-72047D01*
X266535Y-85433D02*
Y-72047D01*
Y-85433D02*
X292520D01*
X266535Y-72047D02*
X292520D01*
Y123228D02*
Y136614D01*
X266535Y123228D02*
Y136614D01*
Y123228D02*
X292520D01*
X266535Y136614D02*
X292520D01*
Y138976D02*
Y152362D01*
X266535Y138976D02*
Y152362D01*
Y138976D02*
X292520D01*
X266535Y152362D02*
X292520D01*
Y-18504D02*
Y-5118D01*
X266535Y-18504D02*
Y-5118D01*
Y-18504D02*
X292520D01*
X266535Y-5118D02*
X292520D01*
Y-34252D02*
Y-20866D01*
X266535Y-34252D02*
Y-20866D01*
Y-34252D02*
X292520D01*
X266535Y-20866D02*
X292520D01*
Y72047D02*
Y85433D01*
X266535Y72047D02*
Y85433D01*
Y72047D02*
X292520D01*
X266535Y85433D02*
X292520D01*
X292520Y56299D02*
Y69685D01*
X266535Y56299D02*
Y69685D01*
Y56299D02*
X292520D01*
X266535Y69685D02*
X292520D01*
X195472Y-80905D02*
X216339D01*
Y-143504D02*
Y-80905D01*
X195472Y-143504D02*
Y-80905D01*
Y-143504D02*
X216339D01*
X195472Y80905D02*
X216339D01*
X195472D02*
Y143504D01*
X216339Y80905D02*
Y143504D01*
X195472D02*
X216339D01*
X195472Y76575D02*
X216339D01*
Y13976D02*
Y76575D01*
X195472Y13976D02*
Y76575D01*
Y13976D02*
X216339D01*
X195472Y-76575D02*
X216339D01*
X195472D02*
Y-13976D01*
X216339Y-76575D02*
Y-13976D01*
X195472D02*
X216339D01*
X0Y-177165D02*
X393701D01*
X0D02*
Y177165D01*
X393701Y-177165D02*
Y177165D01*
X0D02*
X393701D01*
M02*
