G04 Layer_Color=32768*
%FSLAX25Y25*%
%MOIN*%
G70*
G01*
G75*
%ADD21C,0.00394*%
%ADD71C,0.00197*%
D21*
X279528Y-112205D02*
Y-108268D01*
X277559Y-110236D02*
X281496D01*
X266535Y-102362D02*
X292913D01*
X266535Y-118110D02*
X292913D01*
X266535D02*
Y-102362D01*
X292913Y-118110D02*
Y-102362D01*
X277559Y-94488D02*
X281496D01*
X279528Y-96457D02*
Y-92520D01*
X277559Y-78740D02*
X281496D01*
X279528Y-80709D02*
Y-76772D01*
X277559Y129921D02*
X281496D01*
X279528Y127953D02*
Y131890D01*
X277559Y145669D02*
X281496D01*
X279528Y143701D02*
Y147638D01*
X277559Y-11811D02*
X281496D01*
X279528Y-13780D02*
Y-9843D01*
X277559Y-27559D02*
X281496D01*
X279528Y-29528D02*
Y-25591D01*
X277559Y78740D02*
X281496D01*
X279528Y76772D02*
Y80709D01*
X277559Y62992D02*
X281496D01*
X279528Y61024D02*
Y64961D01*
X279528Y112205D02*
Y116142D01*
X277559Y114173D02*
X281496D01*
X266535Y122047D02*
X292913D01*
X266535Y106299D02*
X292913D01*
X266535D02*
Y122047D01*
X292913Y106299D02*
Y122047D01*
X205709Y-114173D02*
Y-110236D01*
X203740Y-112205D02*
X207677D01*
X203740Y112205D02*
X207677D01*
X205709Y110236D02*
Y114173D01*
X292913Y-51181D02*
Y-35433D01*
X266535Y-51181D02*
Y-35433D01*
Y-51181D02*
X292913D01*
X266535Y-35433D02*
X292913D01*
X277559Y-43307D02*
X281496D01*
X279528Y-45276D02*
Y-41339D01*
X292913Y39370D02*
Y55118D01*
X266535Y39370D02*
Y55118D01*
Y39370D02*
X292913D01*
X266535Y55118D02*
X292913D01*
X277559Y47244D02*
X281496D01*
X279528Y45276D02*
Y49213D01*
X205709Y43307D02*
Y47244D01*
X203740Y45276D02*
X207677D01*
X203740Y-45276D02*
X207677D01*
X205709Y-47244D02*
Y-43307D01*
X309449Y44094D02*
Y50394D01*
X296850D02*
X309449D01*
X296850Y44094D02*
Y50394D01*
Y44094D02*
X309449D01*
Y-46457D02*
Y-40157D01*
X296850D02*
X309449D01*
X296850Y-46457D02*
Y-40157D01*
Y-46457D02*
X309449D01*
Y111024D02*
Y117323D01*
X296850D02*
X309449D01*
X296850Y111024D02*
Y117323D01*
Y111024D02*
X309449D01*
Y-113386D02*
Y-107087D01*
X296850D02*
X309449D01*
X296850Y-113386D02*
Y-107087D01*
Y-113386D02*
X309449D01*
X108268Y-16339D02*
Y-12402D01*
X106299Y-14370D02*
X110236D01*
X108268Y12402D02*
Y16339D01*
X106299Y14370D02*
X110236D01*
X173425Y39370D02*
X177362D01*
X175394Y37402D02*
Y41339D01*
X147638Y39370D02*
X151575D01*
X149606Y37402D02*
Y41339D01*
X152559Y76772D02*
Y80709D01*
X150591Y78740D02*
X154528D01*
X175197Y-39370D02*
X179134D01*
X177165Y-41339D02*
Y-37402D01*
X149409Y-39370D02*
X153347D01*
X151378Y-41339D02*
Y-37402D01*
X152559Y-80709D02*
Y-76772D01*
X150591Y-78740D02*
X154528D01*
X0Y-177165D02*
X393701D01*
X0D02*
Y177165D01*
X393701Y-177165D02*
Y177165D01*
X0D02*
X393701D01*
D71*
X294882Y-102165D02*
Y-86811D01*
X264173Y-102165D02*
Y-86811D01*
Y-102165D02*
X294882D01*
X264173Y-86811D02*
X294882D01*
Y-86417D02*
Y-71063D01*
X264173Y-86417D02*
Y-71063D01*
Y-86417D02*
X294882D01*
X264173Y-71063D02*
X294882D01*
Y122244D02*
Y137598D01*
X264173Y122244D02*
Y137598D01*
Y122244D02*
X294882D01*
X264173Y137598D02*
X294882D01*
Y137992D02*
Y153347D01*
X264173Y137992D02*
Y153347D01*
Y137992D02*
X294882D01*
X264173Y153347D02*
X294882D01*
Y-19488D02*
Y-4134D01*
X264173Y-19488D02*
Y-4134D01*
Y-19488D02*
X294882D01*
X264173Y-4134D02*
X294882D01*
Y-35236D02*
Y-19882D01*
X264173Y-35236D02*
Y-19882D01*
Y-35236D02*
X294882D01*
X264173Y-19882D02*
X294882D01*
Y71063D02*
Y86417D01*
X264173Y71063D02*
Y86417D01*
Y71063D02*
X294882D01*
X264173Y86417D02*
X294882D01*
X294882Y55315D02*
Y70669D01*
X264173Y55315D02*
Y70669D01*
Y55315D02*
X294882D01*
X264173Y70669D02*
X294882D01*
X95472Y-30512D02*
X121063D01*
X95472Y1772D02*
X121063D01*
Y-30512D02*
Y1772D01*
X95472Y-30512D02*
Y1772D01*
X95473Y30512D02*
X121063D01*
X95473Y-1772D02*
X121063D01*
X95473D02*
Y30512D01*
X121063Y-1772D02*
Y30512D01*
X188976Y30315D02*
Y48425D01*
X161811Y30315D02*
Y48425D01*
X188976D01*
X161811Y30315D02*
X188976D01*
X133465Y26575D02*
Y52165D01*
X165748Y26575D02*
Y52165D01*
X133465Y26575D02*
X165748D01*
X133465Y52165D02*
X165748D01*
X143504Y65158D02*
X161614D01*
X143504Y92323D02*
X161614D01*
Y65158D02*
Y92323D01*
X143504Y65158D02*
Y92323D01*
X193307Y-52165D02*
Y-26575D01*
X161024Y-52165D02*
Y-26575D01*
X193307D01*
X161024Y-52165D02*
X193307D01*
X137795Y-48425D02*
Y-30315D01*
X164961Y-48425D02*
Y-30315D01*
X137795Y-48425D02*
X164961D01*
X137795Y-30315D02*
X164961D01*
X143504Y-65158D02*
X161614D01*
X143504Y-92323D02*
X161614D01*
X143504D02*
Y-65158D01*
X161614Y-92323D02*
Y-65158D01*
M02*
