G04 Layer_Color=16711935*
%FSLAX25Y25*%
%MOIN*%
G70*
G01*
G75*
%ADD21C,0.00394*%
%ADD44C,0.00800*%
%ADD70C,0.01575*%
D21*
X270079Y-118110D02*
X288976D01*
Y-102362D01*
X270079Y-118110D02*
Y-102362D01*
X288976D01*
X268504Y-114567D02*
X270079D01*
X268504D02*
Y-105905D01*
X270079D01*
Y-112795D02*
Y-108465D01*
X290551Y-114567D02*
Y-105905D01*
X288976D02*
X290551D01*
X288976Y-114567D02*
Y-105905D01*
Y-114567D02*
X290551D01*
X270079Y106299D02*
X288976D01*
Y122047D01*
X270079Y106299D02*
Y122047D01*
X288976D01*
X268504Y109843D02*
X270079D01*
X268504D02*
Y118504D01*
X270079D01*
Y111614D02*
Y115945D01*
X290551Y109843D02*
Y118504D01*
X288976D02*
X290551D01*
X288976Y109843D02*
Y118504D01*
Y109843D02*
X290551D01*
X288976Y-47638D02*
X290551D01*
X288976D02*
Y-38976D01*
X290551D01*
Y-47638D02*
Y-38976D01*
X270079Y-45866D02*
Y-41535D01*
X268504Y-38976D02*
X270079D01*
X268504Y-47638D02*
Y-38976D01*
Y-47638D02*
X270079D01*
Y-35433D02*
X288976D01*
X270079Y-51181D02*
Y-35433D01*
X288976Y-51181D02*
Y-35433D01*
X270079Y-51181D02*
X288976D01*
Y42913D02*
X290551D01*
X288976D02*
Y51575D01*
X290551D01*
Y42913D02*
Y51575D01*
X270079Y44685D02*
Y49016D01*
X268504Y51575D02*
X270079D01*
X268504Y42913D02*
Y51575D01*
Y42913D02*
X270079D01*
Y55118D02*
X288976D01*
X270079Y39370D02*
Y55118D01*
X288976Y39370D02*
Y55118D01*
X270079Y39370D02*
X288976D01*
X97638Y-26378D02*
X118898D01*
X97638Y-2362D02*
X118898D01*
Y-26378D02*
Y-2362D01*
X97638Y-26378D02*
Y-2362D01*
Y26378D02*
X118898D01*
X97638Y2362D02*
X118898D01*
X97638D02*
Y26378D01*
X118898Y2362D02*
Y26378D01*
X184843Y32480D02*
Y46260D01*
X165945Y32480D02*
Y46260D01*
X184843D01*
X165945Y32480D02*
X184843D01*
X137598Y28740D02*
Y50000D01*
X161614Y28740D02*
Y50000D01*
X137598Y28740D02*
X161614D01*
X137598Y50000D02*
X161614D01*
X145669Y69291D02*
X159449D01*
X145669Y88189D02*
X159449D01*
Y69291D02*
Y88189D01*
X145669Y69291D02*
Y88189D01*
X189173Y-50000D02*
Y-28740D01*
X165157Y-50000D02*
Y-28740D01*
X189173D01*
X165157Y-50000D02*
X189173D01*
X141929Y-46260D02*
Y-32480D01*
X160827Y-46260D02*
Y-32480D01*
X141929Y-46260D02*
X160827D01*
X141929Y-32480D02*
X160827D01*
X145669Y-69291D02*
X159449D01*
X145669Y-88189D02*
X159449D01*
X145669D02*
Y-69291D01*
X159449Y-88189D02*
Y-69291D01*
X0Y-177165D02*
X393701D01*
X0D02*
Y177165D01*
X393701Y-177165D02*
Y177165D01*
X0D02*
X393701D01*
D44*
X285827Y-108542D02*
Y-103543D01*
X283328D01*
X282494Y-104376D01*
Y-107709D01*
X283328Y-108542D01*
X285827D01*
X280828D02*
X277496D01*
Y-107709D01*
X280828Y-104376D01*
Y-103543D01*
X285827Y115868D02*
Y120866D01*
X283328D01*
X282494Y120033D01*
Y116701D01*
X283328Y115868D01*
X285827D01*
X277496D02*
X280828D01*
Y118367D01*
X279162Y117534D01*
X278329D01*
X277496Y118367D01*
Y120033D01*
X278329Y120866D01*
X279995D01*
X280828Y120033D01*
X285827Y-41612D02*
Y-36614D01*
X283328D01*
X282494Y-37447D01*
Y-40780D01*
X283328Y-41612D01*
X285827D01*
X280828Y-40780D02*
X279995Y-41612D01*
X278329D01*
X277496Y-40780D01*
Y-39946D01*
X278329Y-39113D01*
X279162D01*
X278329D01*
X277496Y-38280D01*
Y-37447D01*
X278329Y-36614D01*
X279995D01*
X280828Y-37447D01*
X285827Y48939D02*
Y53937D01*
X283328D01*
X282494Y53104D01*
Y49772D01*
X283328Y48939D01*
X285827D01*
X280828Y53937D02*
X279162D01*
X279995D01*
Y48939D01*
X280828Y49772D01*
D70*
X287402Y-116929D02*
Y-103543D01*
Y107480D02*
Y120866D01*
Y-50000D02*
Y-36614D01*
Y40551D02*
Y53937D01*
M02*
