G04 Layer_Color=8421504*
%FSLAX25Y25*%
%MOIN*%
G70*
G01*
G75*
%ADD12R,0.08268X0.09055*%
%ADD13R,0.05315X0.13386*%
%ADD14R,0.09055X0.09055*%
%ADD15R,0.04331X0.04724*%
%ADD21C,0.00394*%
D12*
X270866Y-110236D02*
D03*
X288189D02*
D03*
X270866Y114173D02*
D03*
X288189D02*
D03*
Y-43307D02*
D03*
X270866D02*
D03*
X288189Y47244D02*
D03*
X270866D02*
D03*
D13*
X291240Y-94488D02*
D03*
X267815D02*
D03*
X291240Y-78740D02*
D03*
X267815D02*
D03*
X291240Y129921D02*
D03*
X267815D02*
D03*
X291240Y145669D02*
D03*
X267815D02*
D03*
X291240Y-11811D02*
D03*
X267815D02*
D03*
X291240Y-27559D02*
D03*
X267815D02*
D03*
X291240Y78740D02*
D03*
X267815D02*
D03*
X291240Y62992D02*
D03*
X267815D02*
D03*
D14*
X256890Y-125984D02*
D03*
Y-108268D02*
D03*
Y98425D02*
D03*
Y116142D02*
D03*
Y-59055D02*
D03*
Y-41339D02*
D03*
Y31496D02*
D03*
Y49213D02*
D03*
D15*
X309252Y47244D02*
D03*
X297047D02*
D03*
X309252Y-43307D02*
D03*
X297047D02*
D03*
X309252Y114173D02*
D03*
X297047D02*
D03*
X309252Y-110236D02*
D03*
X297047D02*
D03*
D21*
X0Y-177165D02*
X393701D01*
X0D02*
Y177165D01*
X393701Y-177165D02*
Y177165D01*
X0D02*
X393701D01*
M02*
