G04 Layer_Color=128*
%FSLAX25Y25*%
%MOIN*%
G70*
G01*
G75*
%ADD21C,0.00394*%
%ADD72C,0.00200*%
D21*
X0Y-177165D02*
X393701D01*
X0D02*
Y177165D01*
X393701Y-177165D02*
Y177165D01*
X0D02*
X393701D01*
D72*
X347440Y-24607D02*
X361220D01*
X354330Y-31497D02*
Y-17718D01*
X367125Y-123032D02*
X380905D01*
X374015Y-129922D02*
Y-116143D01*
X376377Y-71851D02*
X382282D01*
X379330Y-74804D02*
Y-68899D01*
X326377Y-71851D02*
X332282D01*
X329330Y-74804D02*
Y-68899D01*
X327755Y-123032D02*
X341534D01*
X334645Y-129922D02*
Y-116143D01*
X325787Y-157480D02*
X343504D01*
X334646Y-166339D02*
Y-148622D01*
X365158Y-157480D02*
X382874D01*
X374016Y-166339D02*
Y-148622D01*
X168307Y-157480D02*
X186024D01*
X177165Y-166339D02*
Y-148622D01*
X168307Y157480D02*
X186024D01*
X177165Y148622D02*
Y166339D01*
X10827Y-157480D02*
X28543D01*
X19685Y-166339D02*
Y-148622D01*
X10827Y157480D02*
X28543D01*
X19685Y148622D02*
Y166339D01*
X365158Y157480D02*
X382874D01*
X374016Y148622D02*
Y166339D01*
X325787Y157480D02*
X343504D01*
X334646Y148622D02*
Y166339D01*
X128937Y-162402D02*
X132874D01*
X130905Y-164370D02*
Y-160433D01*
X128937Y162402D02*
X132874D01*
X130905Y160433D02*
Y164370D01*
X333386Y111929D02*
X337717D01*
X335551Y109764D02*
Y114094D01*
X343386Y111929D02*
X347716D01*
X345551Y109764D02*
Y114094D01*
X333386Y101929D02*
X337717D01*
X335551Y99764D02*
Y104095D01*
X343386Y101929D02*
X347716D01*
X345551Y99764D02*
Y104095D01*
X333386Y91929D02*
X337717D01*
X335551Y89764D02*
Y94095D01*
X343386Y91929D02*
X347716D01*
X345551Y89764D02*
Y94095D01*
X333386Y81929D02*
X337717D01*
X335551Y79764D02*
Y84095D01*
X343386Y81929D02*
X347716D01*
X345551Y79764D02*
Y84095D01*
X333386Y71929D02*
X337717D01*
X335551Y69764D02*
Y74094D01*
X343386Y71929D02*
X347716D01*
X345551Y69764D02*
Y74094D01*
X333386Y61929D02*
X337717D01*
X335551Y59764D02*
Y64095D01*
X343386Y61929D02*
X347716D01*
X345551Y59764D02*
Y64095D01*
X333386Y51929D02*
X337717D01*
X335551Y49764D02*
Y54094D01*
X343386Y51929D02*
X347716D01*
X345551Y49764D02*
Y54094D01*
X333386Y41929D02*
X337717D01*
X335551Y39764D02*
Y44094D01*
X343386Y41929D02*
X347716D01*
X345551Y39764D02*
Y44094D01*
X333386Y31929D02*
X337717D01*
X335551Y29764D02*
Y34095D01*
X343386Y31929D02*
X347716D01*
X345551Y29764D02*
Y34095D01*
X333386Y21929D02*
X337717D01*
X335551Y19764D02*
Y24094D01*
X343386Y21929D02*
X347716D01*
X345551Y19764D02*
Y24094D01*
X225984Y-78740D02*
X238583D01*
X232283Y-85039D02*
Y-72441D01*
X225984Y-137795D02*
X238583D01*
X232283Y-144095D02*
Y-131496D01*
X225984Y137795D02*
X238583D01*
X232283Y131496D02*
Y144095D01*
X225984Y78740D02*
X238583D01*
X232283Y72441D02*
Y85039D01*
X202559Y-133661D02*
X208858D01*
X205709Y-136811D02*
Y-130512D01*
X202559Y-112205D02*
X208858D01*
X205709Y-115354D02*
Y-109055D01*
X202559Y-90748D02*
X208858D01*
X205709Y-93898D02*
Y-87598D01*
X202559Y133661D02*
X208858D01*
X205709Y130512D02*
Y136811D01*
X202559Y112205D02*
X208858D01*
X205709Y109055D02*
Y115354D01*
X202559Y90748D02*
X208858D01*
X205709Y87598D02*
Y93898D01*
X202559Y23819D02*
X208858D01*
X205709Y20669D02*
Y26969D01*
X202559Y45276D02*
X208858D01*
X205709Y42126D02*
Y48425D01*
X202559Y66732D02*
X208858D01*
X205709Y63583D02*
Y69882D01*
X202559Y-23819D02*
X208858D01*
X205709Y-26969D02*
Y-20669D01*
X202559Y-45276D02*
X208858D01*
X205709Y-48425D02*
Y-42126D01*
X202559Y-66732D02*
X208858D01*
X205709Y-69882D02*
Y-63583D01*
X145669Y0D02*
X149606D01*
X147638Y-1969D02*
Y1969D01*
X37402Y0D02*
X41339D01*
X39370Y-1969D02*
Y1969D01*
X89567Y88583D02*
X97441D01*
X93504Y84646D02*
Y92520D01*
X89567Y127953D02*
X97441D01*
X93504Y124016D02*
Y131890D01*
X64961Y123031D02*
X72835D01*
X68898Y119095D02*
Y126969D01*
X64961Y83661D02*
X72835D01*
X68898Y79724D02*
Y87598D01*
X45276Y19685D02*
X53150D01*
X49213Y15748D02*
Y23622D01*
X45276Y-19685D02*
X53150D01*
X49213Y-23622D02*
Y-15748D01*
X64961Y-83661D02*
X72835D01*
X68898Y-87598D02*
Y-79724D01*
X64961Y-123031D02*
X72835D01*
X68898Y-126969D02*
Y-119095D01*
X89567Y-127953D02*
X97441D01*
X93504Y-131890D02*
Y-124016D01*
X89567Y-88583D02*
X97441D01*
X93504Y-92520D02*
Y-84646D01*
X128937Y54134D02*
X132874D01*
X130905Y52165D02*
Y56102D01*
X128937Y-54134D02*
X132874D01*
X130905Y-56102D02*
Y-52165D01*
X175197Y96457D02*
X179134D01*
X177165Y94488D02*
Y98425D01*
X175197Y66929D02*
X179134D01*
X177165Y64961D02*
Y68898D01*
X175197Y7874D02*
X179134D01*
X177165Y5906D02*
Y9843D01*
X175197Y-96457D02*
X179134D01*
X177165Y-98425D02*
Y-94488D01*
X175197Y-66929D02*
X179134D01*
X177165Y-68898D02*
Y-64961D01*
X175197Y-7874D02*
X179134D01*
X177165Y-9843D02*
Y-5906D01*
X10827Y59055D02*
X28543D01*
X19685Y50197D02*
Y67913D01*
X10827Y-59055D02*
X28543D01*
X19685Y-67913D02*
Y-50197D01*
X321727Y-116143D02*
X323695D01*
X322711Y-117127D02*
Y-115158D01*
X333661Y-109253D02*
X335629D01*
X334645Y-110237D02*
Y-108269D01*
X326771Y-111099D02*
X328739D01*
X327755Y-112083D02*
Y-110115D01*
X321727Y-129922D02*
X323695D01*
X322711Y-130906D02*
Y-128938D01*
X319881Y-123032D02*
X321849D01*
X320865Y-124017D02*
Y-122048D01*
X326771Y-134966D02*
X328739D01*
X327755Y-135950D02*
Y-133982D01*
X340550Y-134966D02*
X342519D01*
X341534Y-135950D02*
Y-133982D01*
X333661Y-136812D02*
X335629D01*
X334645Y-137796D02*
Y-135828D01*
X345594Y-129922D02*
X347562D01*
X346578Y-130906D02*
Y-128938D01*
X345594Y-116143D02*
X347562D01*
X346578Y-117127D02*
Y-115158D01*
X347440Y-123032D02*
X349409D01*
X348424Y-124017D02*
Y-122048D01*
X340550Y-111099D02*
X342519D01*
X341534Y-112083D02*
Y-110115D01*
X361097Y-116143D02*
X363066D01*
X362081Y-117127D02*
Y-115158D01*
X373030Y-109253D02*
X374999D01*
X374015Y-110237D02*
Y-108269D01*
X366141Y-111099D02*
X368109D01*
X367125Y-112083D02*
Y-110115D01*
X361097Y-129922D02*
X363066D01*
X362081Y-130906D02*
Y-128938D01*
X359251Y-123032D02*
X361220D01*
X360235Y-124017D02*
Y-122048D01*
X366141Y-134966D02*
X368109D01*
X367125Y-135950D02*
Y-133982D01*
X379920Y-134966D02*
X381889D01*
X380905Y-135950D02*
Y-133982D01*
X373030Y-136812D02*
X374999D01*
X374015Y-137796D02*
Y-135828D01*
X384964Y-129922D02*
X386932D01*
X385948Y-130906D02*
Y-128938D01*
X384964Y-116143D02*
X386932D01*
X385948Y-117127D02*
Y-115158D01*
X386810Y-123032D02*
X388779D01*
X387794Y-124017D02*
Y-122048D01*
X379920Y-111099D02*
X381889D01*
X380905Y-112083D02*
Y-110115D01*
X147222Y-86811D02*
X150022D01*
X148622Y-88211D02*
Y-85411D01*
X155096Y-86811D02*
X157896D01*
X156496Y-88211D02*
Y-85411D01*
X158639Y33465D02*
X161439D01*
X160039Y32065D02*
Y34865D01*
X158639Y39370D02*
X161439D01*
X160039Y37970D02*
Y40770D01*
X158639Y45276D02*
X161439D01*
X160039Y43876D02*
Y46676D01*
X147222Y86811D02*
X150022D01*
X148622Y85411D02*
Y88211D01*
X155096Y86811D02*
X157896D01*
X156496Y85411D02*
Y88211D01*
X165332Y-45276D02*
X168132D01*
X166732Y-46676D02*
Y-43876D01*
X165332Y-39370D02*
X168132D01*
X166732Y-40770D02*
Y-37970D01*
X165332Y-33465D02*
X168132D01*
X166732Y-34865D02*
Y-32065D01*
X325787Y87598D02*
X327756D01*
X326772Y86614D02*
Y88583D01*
X325787Y93504D02*
X327756D01*
X326772Y92520D02*
Y94488D01*
X325787Y99410D02*
X327756D01*
X326772Y98425D02*
Y100394D01*
X197835Y-45276D02*
X199803D01*
X198819Y-46260D02*
Y-44291D01*
X211614Y-66732D02*
X213583D01*
X212598Y-67716D02*
Y-65748D01*
X211614Y-133661D02*
X213583D01*
X212598Y-134646D02*
Y-132677D01*
X211614Y23819D02*
X213583D01*
X212598Y22835D02*
Y24803D01*
X197835Y-133661D02*
X199803D01*
X198819Y-134646D02*
Y-132677D01*
X197835Y-66732D02*
X199803D01*
X198819Y-67716D02*
Y-65748D01*
X211614Y112205D02*
X213583D01*
X212598Y111221D02*
Y113189D01*
X209596Y117077D02*
X211565D01*
X210580Y116092D02*
Y118061D01*
X209596Y107333D02*
X211565D01*
X210580Y106349D02*
Y108317D01*
X199853Y107333D02*
X201821D01*
X200837Y106349D02*
Y108317D01*
X204724Y119095D02*
X206693D01*
X205709Y118110D02*
Y120079D01*
X204724Y105315D02*
X206693D01*
X205709Y104331D02*
Y106299D01*
X197835Y112205D02*
X199803D01*
X198819Y111221D02*
Y113189D01*
X199853Y117077D02*
X201821D01*
X200837Y116092D02*
Y118061D01*
X211614Y45276D02*
X213583D01*
X212598Y44291D02*
Y46260D01*
X209596Y50147D02*
X211565D01*
X210580Y49163D02*
Y51132D01*
X209596Y40404D02*
X211565D01*
X210580Y39419D02*
Y41388D01*
X199853Y40404D02*
X201821D01*
X200837Y39419D02*
Y41388D01*
X204724Y52165D02*
X206693D01*
X205709Y51181D02*
Y53150D01*
X204724Y38386D02*
X206693D01*
X205709Y37402D02*
Y39370D01*
X197835Y45276D02*
X199803D01*
X198819Y44291D02*
Y46260D01*
X199853Y50147D02*
X201821D01*
X200837Y49163D02*
Y51132D01*
X199853Y-107333D02*
X201821D01*
X200837Y-108317D02*
Y-106349D01*
X197835Y-112205D02*
X199803D01*
X198819Y-113189D02*
Y-111221D01*
X204724Y-119095D02*
X206693D01*
X205709Y-120079D02*
Y-118110D01*
X204724Y-105315D02*
X206693D01*
X205709Y-106299D02*
Y-104331D01*
X199853Y-117077D02*
X201821D01*
X200837Y-118061D02*
Y-116092D01*
X209596Y-117077D02*
X211565D01*
X210580Y-118061D02*
Y-116092D01*
X209596Y-107333D02*
X211565D01*
X210580Y-108317D02*
Y-106349D01*
X211614Y-112205D02*
X213583D01*
X212598Y-113189D02*
Y-111221D01*
X199853Y-138533D02*
X201821D01*
X200837Y-139517D02*
Y-137549D01*
X199853Y-128790D02*
X201821D01*
X200837Y-129774D02*
Y-127805D01*
X209596Y-138533D02*
X211565D01*
X210580Y-139517D02*
Y-137549D01*
X204724Y-126772D02*
X206693D01*
X205709Y-127756D02*
Y-125787D01*
X204724Y-140551D02*
X206693D01*
X205709Y-141535D02*
Y-139567D01*
X204724Y-73622D02*
X206693D01*
X205709Y-74606D02*
Y-72638D01*
X204724Y-59842D02*
X206693D01*
X205709Y-60827D02*
Y-58858D01*
X209596Y-71604D02*
X211565D01*
X210580Y-72588D02*
Y-70620D01*
X199853Y-61861D02*
X201821D01*
X200837Y-62845D02*
Y-60876D01*
X199853Y-71604D02*
X201821D01*
X200837Y-72588D02*
Y-70620D01*
X211614Y-45276D02*
X213583D01*
X212598Y-46260D02*
Y-44291D01*
X209596Y-40404D02*
X211565D01*
X210580Y-41388D02*
Y-39419D01*
X209596Y-50147D02*
X211565D01*
X210580Y-51132D02*
Y-49163D01*
X199853Y-50147D02*
X201821D01*
X200837Y-51132D02*
Y-49163D01*
X204724Y-38386D02*
X206693D01*
X205709Y-39370D02*
Y-37402D01*
X204724Y-52165D02*
X206693D01*
X205709Y-53150D02*
Y-51181D01*
X199853Y-40404D02*
X201821D01*
X200837Y-41388D02*
Y-39419D01*
X204724Y16929D02*
X206693D01*
X205709Y15945D02*
Y17913D01*
X204724Y30709D02*
X206693D01*
X205709Y29724D02*
Y31693D01*
X209596Y18947D02*
X211565D01*
X210580Y17963D02*
Y19931D01*
X199853Y28691D02*
X201821D01*
X200837Y27706D02*
Y29675D01*
X199853Y18947D02*
X201821D01*
X200837Y17963D02*
Y19931D01*
X197835Y23819D02*
X199803D01*
X198819Y22835D02*
Y24803D01*
X341413Y-17717D02*
X343382D01*
X342397Y-18701D02*
Y-16732D01*
X353346Y-10827D02*
X355315D01*
X354331Y-11811D02*
Y-9843D01*
X346457Y-12673D02*
X348425D01*
X347441Y-13657D02*
Y-11689D01*
X341413Y-31496D02*
X343382D01*
X342397Y-32480D02*
Y-30512D01*
X339567Y-24606D02*
X341535D01*
X340551Y-25591D02*
Y-23622D01*
X346457Y-36540D02*
X348425D01*
X347441Y-37524D02*
Y-35555D01*
X360236Y-36540D02*
X362205D01*
X361221Y-37524D02*
Y-35555D01*
X353346Y-38386D02*
X355315D01*
X354331Y-39370D02*
Y-37402D01*
X365280Y-31496D02*
X367248D01*
X366264Y-32480D02*
Y-30512D01*
X365280Y-17717D02*
X367248D01*
X366264Y-18701D02*
Y-16732D01*
X367126Y-24606D02*
X369094D01*
X368110Y-25591D02*
Y-23622D01*
X360236Y-12673D02*
X362205D01*
X361221Y-13657D02*
Y-11689D01*
X340551Y-145547D02*
X342520D01*
X341535Y-146531D02*
Y-144563D01*
X347441Y-157480D02*
X349410D01*
X348425Y-158465D02*
Y-156496D01*
X345595Y-150591D02*
X347563D01*
X346579Y-151575D02*
Y-149606D01*
X345595Y-164370D02*
X347563D01*
X346579Y-165354D02*
Y-163386D01*
X333661Y-171260D02*
X335630D01*
X334646Y-172244D02*
Y-170276D01*
X340551Y-169414D02*
X342520D01*
X341535Y-170398D02*
Y-168430D01*
X326772Y-169414D02*
X328740D01*
X327756Y-170398D02*
Y-168430D01*
X319882Y-157480D02*
X321850D01*
X320866Y-158465D02*
Y-156496D01*
X321728Y-164370D02*
X323696D01*
X322712Y-165354D02*
Y-163386D01*
X326772Y-145547D02*
X328740D01*
X327756Y-146531D02*
Y-144563D01*
X333661Y-143701D02*
X335630D01*
X334646Y-144685D02*
Y-142717D01*
X321728Y-150591D02*
X323696D01*
X322712Y-151575D02*
Y-149606D01*
X379921Y-145547D02*
X381890D01*
X380906Y-146531D02*
Y-144563D01*
X386811Y-157480D02*
X388779D01*
X387795Y-158465D02*
Y-156496D01*
X384965Y-150591D02*
X386933D01*
X385949Y-151575D02*
Y-149606D01*
X384965Y-164370D02*
X386933D01*
X385949Y-165354D02*
Y-163386D01*
X373031Y-171260D02*
X375000D01*
X374016Y-172244D02*
Y-170276D01*
X379921Y-169414D02*
X381890D01*
X380906Y-170398D02*
Y-168430D01*
X366142Y-169414D02*
X368110D01*
X367126Y-170398D02*
Y-168430D01*
X359252Y-157480D02*
X361221D01*
X360236Y-158465D02*
Y-156496D01*
X361098Y-164370D02*
X363067D01*
X362082Y-165354D02*
Y-163386D01*
X361098Y-150591D02*
X363067D01*
X362082Y-151575D02*
Y-149606D01*
X373031Y-143701D02*
X375000D01*
X374016Y-144685D02*
Y-142717D01*
X366142Y-145547D02*
X368110D01*
X367126Y-146531D02*
Y-144563D01*
X325787Y105315D02*
X327756D01*
X326772Y104331D02*
Y106299D01*
X197835Y90748D02*
X199803D01*
X198819Y89764D02*
Y91732D01*
X199853Y85876D02*
X201821D01*
X200837Y84892D02*
Y86861D01*
X199853Y95620D02*
X201821D01*
X200837Y94636D02*
Y96604D01*
X209596Y85876D02*
X211565D01*
X210580Y84892D02*
Y86861D01*
X204724Y97638D02*
X206693D01*
X205709Y96653D02*
Y98622D01*
X204724Y83858D02*
X206693D01*
X205709Y82874D02*
Y84842D01*
X211614Y90748D02*
X213583D01*
X212598Y89764D02*
Y91732D01*
X164248Y-150591D02*
X166216D01*
X165232Y-151575D02*
Y-149606D01*
X176181Y-143701D02*
X178150D01*
X177165Y-144685D02*
Y-142717D01*
X169291Y-145547D02*
X171260D01*
X170276Y-146531D02*
Y-144563D01*
X164248Y-164370D02*
X166216D01*
X165232Y-165354D02*
Y-163386D01*
X162402Y-157480D02*
X164370D01*
X163386Y-158465D02*
Y-156496D01*
X169291Y-169414D02*
X171260D01*
X170276Y-170398D02*
Y-168430D01*
X183071Y-169414D02*
X185039D01*
X184055Y-170398D02*
Y-168430D01*
X176181Y-171260D02*
X178150D01*
X177165Y-172244D02*
Y-170276D01*
X188115Y-164370D02*
X190083D01*
X189099Y-165354D02*
Y-163386D01*
X188115Y-150591D02*
X190083D01*
X189099Y-151575D02*
Y-149606D01*
X189961Y-157480D02*
X191929D01*
X190945Y-158465D02*
Y-156496D01*
X183071Y-145547D02*
X185039D01*
X184055Y-146531D02*
Y-144563D01*
X6767Y-150591D02*
X8736D01*
X7752Y-151575D02*
Y-149606D01*
X18701Y-143701D02*
X20669D01*
X19685Y-144685D02*
Y-142717D01*
X11811Y-145547D02*
X13780D01*
X12795Y-146531D02*
Y-144563D01*
X6767Y-164370D02*
X8736D01*
X7752Y-165354D02*
Y-163386D01*
X4921Y-157480D02*
X6890D01*
X5906Y-158465D02*
Y-156496D01*
X11811Y-169414D02*
X13780D01*
X12795Y-170398D02*
Y-168430D01*
X25591Y-169414D02*
X27559D01*
X26575Y-170398D02*
Y-168430D01*
X18701Y-171260D02*
X20669D01*
X19685Y-172244D02*
Y-170276D01*
X30634Y-164370D02*
X32603D01*
X31618Y-165354D02*
Y-163386D01*
X30634Y-150591D02*
X32603D01*
X31618Y-151575D02*
Y-149606D01*
X32480Y-157480D02*
X34449D01*
X33465Y-158465D02*
Y-156496D01*
X25591Y-145547D02*
X27559D01*
X26575Y-146531D02*
Y-144563D01*
X6767Y164370D02*
X8736D01*
X7752Y163386D02*
Y165354D01*
X18701Y171260D02*
X20669D01*
X19685Y170276D02*
Y172244D01*
X11811Y169414D02*
X13780D01*
X12795Y168430D02*
Y170398D01*
X6767Y150591D02*
X8736D01*
X7752Y149606D02*
Y151575D01*
X4921Y157480D02*
X6890D01*
X5906Y156496D02*
Y158465D01*
X11811Y145547D02*
X13780D01*
X12795Y144563D02*
Y146531D01*
X25591Y145547D02*
X27559D01*
X26575Y144563D02*
Y146531D01*
X18701Y143701D02*
X20669D01*
X19685Y142717D02*
Y144685D01*
X30634Y150591D02*
X32603D01*
X31618Y149606D02*
Y151575D01*
X30634Y164370D02*
X32603D01*
X31618Y163386D02*
Y165354D01*
X32480Y157480D02*
X34449D01*
X33465Y156496D02*
Y158465D01*
X25591Y169414D02*
X27559D01*
X26575Y168430D02*
Y170398D01*
X164248Y164370D02*
X166216D01*
X165232Y163386D02*
Y165354D01*
X176181Y171260D02*
X178150D01*
X177165Y170276D02*
Y172244D01*
X169291Y169414D02*
X171260D01*
X170276Y168430D02*
Y170398D01*
X164248Y150591D02*
X166216D01*
X165232Y149606D02*
Y151575D01*
X162402Y157480D02*
X164370D01*
X163386Y156496D02*
Y158465D01*
X169291Y145547D02*
X171260D01*
X170276Y144563D02*
Y146531D01*
X183071Y145547D02*
X185039D01*
X184055Y144563D02*
Y146531D01*
X176181Y143701D02*
X178150D01*
X177165Y142717D02*
Y144685D01*
X188115Y150591D02*
X190083D01*
X189099Y149606D02*
Y151575D01*
X188115Y164370D02*
X190083D01*
X189099Y163386D02*
Y165354D01*
X189961Y157480D02*
X191929D01*
X190945Y156496D02*
Y158465D01*
X183071Y169414D02*
X185039D01*
X184055Y168430D02*
Y170398D01*
X112773Y-3937D02*
X115573D01*
X114173Y-5337D02*
Y-2537D01*
X100962Y-3937D02*
X103762D01*
X102362Y-5337D02*
Y-2537D01*
X100962Y3937D02*
X103762D01*
X102362Y2537D02*
Y5337D01*
X112773Y3937D02*
X115573D01*
X114173Y2537D02*
Y5337D01*
X165923Y35433D02*
X168723D01*
X167323Y34033D02*
Y36833D01*
X165923Y43307D02*
X168723D01*
X167323Y41907D02*
Y44707D01*
X158049Y-35433D02*
X160849D01*
X159449Y-36833D02*
Y-34033D01*
X158049Y-43307D02*
X160849D01*
X159449Y-44707D02*
Y-41907D01*
X106868Y-3937D02*
X109668D01*
X108268Y-5337D02*
Y-2537D01*
X106868Y3937D02*
X109668D01*
X108268Y2537D02*
Y5337D01*
X379921Y169414D02*
X381890D01*
X380906Y168430D02*
Y170398D01*
X386811Y157480D02*
X388779D01*
X387795Y156496D02*
Y158465D01*
X384965Y164370D02*
X386933D01*
X385949Y163386D02*
Y165354D01*
X384965Y150591D02*
X386933D01*
X385949Y149606D02*
Y151575D01*
X373031Y143701D02*
X375000D01*
X374016Y142717D02*
Y144685D01*
X379921Y145547D02*
X381890D01*
X380906Y144563D02*
Y146531D01*
X366142Y145547D02*
X368110D01*
X367126Y144563D02*
Y146531D01*
X359252Y157480D02*
X361221D01*
X360236Y156496D02*
Y158465D01*
X361098Y150591D02*
X363067D01*
X362082Y149606D02*
Y151575D01*
X366142Y169414D02*
X368110D01*
X367126Y168430D02*
Y170398D01*
X373031Y171260D02*
X375000D01*
X374016Y170276D02*
Y172244D01*
X361098Y164370D02*
X363067D01*
X362082Y163386D02*
Y165354D01*
X6767Y65945D02*
X8736D01*
X7752Y64961D02*
Y66929D01*
X18701Y72835D02*
X20669D01*
X19685Y71850D02*
Y73819D01*
X11811Y70989D02*
X13780D01*
X12795Y70004D02*
Y71973D01*
X6767Y52165D02*
X8736D01*
X7752Y51181D02*
Y53150D01*
X4921Y59055D02*
X6890D01*
X5906Y58071D02*
Y60039D01*
X11811Y47122D02*
X13780D01*
X12795Y46137D02*
Y48106D01*
X25591Y47122D02*
X27559D01*
X26575Y46137D02*
Y48106D01*
X18701Y45276D02*
X20669D01*
X19685Y44291D02*
Y46260D01*
X30634Y52165D02*
X32603D01*
X31618Y51181D02*
Y53150D01*
X30634Y65945D02*
X32603D01*
X31618Y64961D02*
Y66929D01*
X32480Y59055D02*
X34449D01*
X33465Y58071D02*
Y60039D01*
X25591Y70989D02*
X27559D01*
X26575Y70004D02*
Y71973D01*
X6767Y-52165D02*
X8736D01*
X7752Y-53150D02*
Y-51181D01*
X18701Y-45276D02*
X20669D01*
X19685Y-46260D02*
Y-44291D01*
X11811Y-47122D02*
X13780D01*
X12795Y-48106D02*
Y-46137D01*
X6767Y-65945D02*
X8736D01*
X7752Y-66929D02*
Y-64961D01*
X4921Y-59055D02*
X6890D01*
X5906Y-60039D02*
Y-58071D01*
X11811Y-70989D02*
X13780D01*
X12795Y-71973D02*
Y-70004D01*
X25591Y-70989D02*
X27559D01*
X26575Y-71973D02*
Y-70004D01*
X18701Y-72835D02*
X20669D01*
X19685Y-73819D02*
Y-71850D01*
X30634Y-65945D02*
X32603D01*
X31618Y-66929D02*
Y-64961D01*
X30634Y-52165D02*
X32603D01*
X31618Y-53150D02*
Y-51181D01*
X32480Y-59055D02*
X34449D01*
X33465Y-60039D02*
Y-58071D01*
X25591Y-47122D02*
X27559D01*
X26575Y-48106D02*
Y-46137D01*
M02*
