G04 Layer_Color=65535*
%FSLAX25Y25*%
%MOIN*%
G70*
G01*
G75*
%ADD16C,0.01968*%
%ADD21C,0.00394*%
%ADD37C,0.00787*%
%ADD38C,0.01000*%
%ADD39C,0.00984*%
%ADD40C,0.01181*%
%ADD41C,0.00500*%
%ADD42C,0.00600*%
%ADD43C,0.00591*%
%ADD44C,0.00800*%
%ADD45R,0.02165X0.13386*%
%ADD46R,0.03090X0.10000*%
G36*
X250000Y-167323D02*
X214567D01*
X214567Y167323D01*
X250000D01*
X250000Y-167323D01*
D02*
G37*
%LPC*%
G36*
X232962Y-130905D02*
X231605D01*
X230274Y-131170D01*
X229020Y-131690D01*
X227891Y-132444D01*
X226932Y-133403D01*
X226178Y-134532D01*
X225658Y-135786D01*
X225394Y-137117D01*
Y-137795D01*
Y-138474D01*
X225658Y-139805D01*
X226178Y-141059D01*
X226932Y-142187D01*
X227891Y-143147D01*
X229020Y-143901D01*
X230274Y-144420D01*
X231605Y-144685D01*
X232962D01*
X234293Y-144420D01*
X235547Y-143901D01*
X236675Y-143147D01*
X237635Y-142187D01*
X238389Y-141059D01*
X238908Y-139805D01*
X239173Y-138474D01*
Y-137795D01*
Y-137117D01*
X238908Y-135786D01*
X238389Y-134532D01*
X237635Y-133403D01*
X236675Y-132444D01*
X235547Y-131690D01*
X234293Y-131170D01*
X232962Y-130905D01*
D02*
G37*
G36*
Y-71850D02*
X231605D01*
X230274Y-72115D01*
X229020Y-72635D01*
X227891Y-73388D01*
X226932Y-74348D01*
X226178Y-75477D01*
X225658Y-76731D01*
X225394Y-78062D01*
Y-78740D01*
Y-79419D01*
X225658Y-80750D01*
X226178Y-82004D01*
X226932Y-83132D01*
X227891Y-84092D01*
X229020Y-84846D01*
X230274Y-85365D01*
X231605Y-85630D01*
X232962D01*
X234293Y-85365D01*
X235547Y-84846D01*
X236675Y-84092D01*
X237635Y-83132D01*
X238389Y-82004D01*
X238908Y-80750D01*
X239173Y-79419D01*
Y-78740D01*
Y-78062D01*
X238908Y-76731D01*
X238389Y-75477D01*
X237635Y-74348D01*
X236675Y-73388D01*
X235547Y-72635D01*
X234293Y-72115D01*
X232962Y-71850D01*
D02*
G37*
G36*
Y144685D02*
X231605D01*
X230274Y144420D01*
X229020Y143901D01*
X227891Y143147D01*
X226932Y142187D01*
X226178Y141059D01*
X225658Y139805D01*
X225394Y138474D01*
Y137795D01*
Y137117D01*
X225658Y135786D01*
X226178Y134532D01*
X226932Y133403D01*
X227891Y132444D01*
X229020Y131690D01*
X230274Y131170D01*
X231605Y130905D01*
X232962D01*
X234293Y131170D01*
X235547Y131690D01*
X236675Y132444D01*
X237635Y133403D01*
X238389Y134532D01*
X238908Y135786D01*
X239173Y137117D01*
Y137795D01*
Y138474D01*
X238908Y139805D01*
X238389Y141059D01*
X237635Y142187D01*
X236675Y143147D01*
X235547Y143901D01*
X234293Y144420D01*
X232962Y144685D01*
D02*
G37*
G36*
Y85630D02*
X231605D01*
X230274Y85365D01*
X229020Y84846D01*
X227891Y84092D01*
X226932Y83132D01*
X226178Y82004D01*
X225658Y80750D01*
X225394Y79419D01*
Y78740D01*
Y78062D01*
X225658Y76731D01*
X226178Y75477D01*
X226932Y74348D01*
X227891Y73388D01*
X229020Y72635D01*
X230274Y72115D01*
X231605Y71850D01*
X232962D01*
X234293Y72115D01*
X235547Y72635D01*
X236675Y73388D01*
X237635Y74348D01*
X238389Y75477D01*
X238908Y76731D01*
X239173Y78062D01*
Y78740D01*
Y79419D01*
X238908Y80750D01*
X238389Y82004D01*
X237635Y83132D01*
X236675Y84092D01*
X235547Y84846D01*
X234293Y85365D01*
X232962Y85630D01*
D02*
G37*
%LPD*%
D16*
X291502Y-117323D02*
G03*
X291502Y-117323I-557J0D01*
G01*
Y107087D02*
G03*
X291502Y107087I-557J0D01*
G01*
Y-50394D02*
G03*
X291502Y-50394I-557J0D01*
G01*
Y40157D02*
G03*
X291502Y40157I-557J0D01*
G01*
D21*
X0Y-177165D02*
X393701D01*
X0D02*
Y177165D01*
X393701Y-177165D02*
Y177165D01*
X0D02*
X393701D01*
D37*
X347440Y-120080D02*
G03*
X354330Y-111221I-19216J22054D01*
G01*
X361220Y-91536D02*
G03*
X371062Y-110237I29058J3353D01*
G01*
X337597D02*
G03*
X347440Y-91536I-19216J22054D01*
G01*
X354330Y-111221D02*
G03*
X361220Y-120080I26106J13196D01*
G01*
X347440Y-56103D02*
Y-36418D01*
X361220Y-56103D02*
Y-36418D01*
X320865Y-91536D02*
X387794D01*
X320865Y-56103D02*
X387794D01*
Y-91536D02*
Y-56103D01*
X320865Y-91536D02*
Y-56103D01*
X282283Y-116929D02*
Y-103543D01*
X274016D02*
X282283D01*
X274016Y-116929D02*
X282283D01*
X272047Y-100787D02*
X287008D01*
X272047Y-88189D02*
X287008D01*
X272047Y-85039D02*
X287008D01*
X272047Y-72441D02*
X287008D01*
X272047Y123622D02*
X287008D01*
X272047Y136221D02*
X287008D01*
X272047Y139370D02*
X287008D01*
X272047Y151969D02*
X287008D01*
X272047Y-18110D02*
X287008D01*
X272047Y-5512D02*
X287008D01*
X272047Y-33858D02*
X287008D01*
X272047Y-21260D02*
X287008D01*
X272047Y72441D02*
X287008D01*
X272047Y85039D02*
X287008D01*
X272047Y56693D02*
X287008D01*
X272047Y69291D02*
X287008D01*
X196850Y-152559D02*
Y-4921D01*
X314961Y-152559D02*
Y-4921D01*
X196850Y-152559D02*
X314961D01*
X196850Y-4921D02*
X314961D01*
X196850Y152559D02*
X314961D01*
X196850Y4921D02*
X314961D01*
Y152559D01*
X196850Y4921D02*
Y152559D01*
X282283Y107480D02*
Y120866D01*
X274016D02*
X282283D01*
X274016Y107480D02*
X282283D01*
X195472Y-143504D02*
X216339D01*
X195472Y-80905D02*
X216339D01*
X195472Y-143504D02*
Y-80905D01*
X216339Y-143504D02*
Y-80905D01*
X214370Y-143504D02*
Y-80905D01*
Y80905D02*
Y143504D01*
X216339Y80905D02*
Y143504D01*
X195472Y80905D02*
Y143504D01*
X216339D01*
X195472Y80905D02*
X216339D01*
X274016Y-50000D02*
X282283D01*
X274016Y-36614D02*
X282283D01*
Y-50000D02*
Y-36614D01*
X274016Y40551D02*
X282283D01*
X274016Y53937D02*
X282283D01*
Y40551D02*
Y53937D01*
X195472Y13976D02*
X216339D01*
X195472Y76575D02*
X216339D01*
X195472Y13976D02*
Y76575D01*
X216339Y13976D02*
Y76575D01*
X214370Y13976D02*
Y76575D01*
Y-76575D02*
Y-13976D01*
X216339Y-76575D02*
Y-13976D01*
X195472Y-76575D02*
Y-13976D01*
X216339D01*
X195472Y-76575D02*
X216339D01*
X31496Y-27559D02*
X155512D01*
X31496Y27559D02*
X155512D01*
Y-27559D02*
Y27559D01*
X31496Y-27559D02*
Y27559D01*
X158465Y-62008D02*
Y62008D01*
X103347Y-62008D02*
Y62008D01*
X158465D01*
X103347Y-62008D02*
X158465D01*
X180118Y102362D02*
X185039D01*
X171260D02*
X176181D01*
X189961D02*
X190945D01*
X163386D02*
X165354D01*
X163386Y72835D02*
Y75787D01*
Y80709D02*
Y85630D01*
Y90551D02*
Y95472D01*
Y100394D02*
Y102362D01*
X190945Y100394D02*
Y102362D01*
Y90551D02*
Y95472D01*
Y80709D02*
Y85630D01*
Y72835D02*
Y75787D01*
X163386Y1969D02*
Y72835D01*
X190945Y1969D02*
Y72835D01*
X163386Y1969D02*
X190945D01*
X163386Y72835D02*
X190945D01*
X169291Y-102362D02*
X174213D01*
X178150D02*
X183071D01*
X163386D02*
X164370D01*
X188976D02*
X190945D01*
Y-75787D02*
Y-72835D01*
Y-85630D02*
Y-80709D01*
Y-95472D02*
Y-90551D01*
Y-102362D02*
Y-100394D01*
X163386Y-102362D02*
Y-100394D01*
Y-95472D02*
Y-90551D01*
Y-85630D02*
Y-80709D01*
Y-75787D02*
Y-72835D01*
X190945D02*
Y-1969D01*
X163386Y-72835D02*
Y-1969D01*
X190945D01*
X163386Y-72835D02*
X190945D01*
D38*
X239173Y137795D02*
G03*
X239173Y137795I-6890J0D01*
G01*
Y78740D02*
G03*
X239173Y78740I-6890J0D01*
G01*
Y-78740D02*
G03*
X239173Y-78740I-6890J0D01*
G01*
Y-137795D02*
G03*
X239173Y-137795I-6890J0D01*
G01*
D39*
X198524Y-83465D02*
G03*
X198524Y-83465I-492J0D01*
G01*
Y140945D02*
G03*
X198524Y140945I-492J0D01*
G01*
Y74016D02*
G03*
X198524Y74016I-492J0D01*
G01*
Y-16535D02*
G03*
X198524Y-16535I-492J0D01*
G01*
D40*
X162402Y108268D02*
G03*
X162402Y108268I-68898J0D01*
G01*
X118110Y103347D02*
G03*
X118110Y103347I-49213J0D01*
G01*
X98425Y0D02*
G03*
X98425Y0I-49213J0D01*
G01*
X118110Y-103347D02*
G03*
X118110Y-103347I-49213J0D01*
G01*
X162402Y-108268D02*
G03*
X162402Y-108268I-68898J0D01*
G01*
D41*
X358957Y1851D02*
Y132008D01*
X323131Y1851D02*
X358957D01*
X323131D02*
Y132008D01*
X358957D01*
Y1851D02*
Y132008D01*
X323131Y1851D02*
X358957D01*
X323131D02*
Y132008D01*
X358957D01*
D42*
X262008Y-125630D02*
X264016D01*
X249764D02*
X251772D01*
X249764Y-108622D02*
X251772D01*
X262008D02*
X264016D01*
X249764Y-125630D02*
Y-108622D01*
X264016Y-125630D02*
Y-108622D01*
X262008Y98779D02*
X264016D01*
X249764D02*
X251772D01*
X249764Y115787D02*
X251772D01*
X262008D02*
X264016D01*
X249764Y98779D02*
Y115787D01*
X264016Y98779D02*
Y115787D01*
X262008Y-58701D02*
X264016D01*
X249764D02*
X251772D01*
X249764Y-41693D02*
X251772D01*
X262008D02*
X264016D01*
X249764Y-58701D02*
Y-41693D01*
X264016Y-58701D02*
Y-41693D01*
X262008Y31850D02*
X264016D01*
X249764D02*
X251772D01*
X249764Y48858D02*
X251772D01*
X262008D02*
X264016D01*
X249764Y31850D02*
Y48858D01*
X264016Y31850D02*
Y48858D01*
D43*
X312402Y43898D02*
Y50591D01*
X293898D02*
X312402D01*
X293898Y43898D02*
Y50591D01*
Y43898D02*
X312402D01*
Y-46654D02*
Y-39961D01*
X293898D02*
X312402D01*
X293898Y-46654D02*
Y-39961D01*
Y-46654D02*
X312402D01*
Y110827D02*
Y117520D01*
X293898D02*
X312402D01*
X293898Y110827D02*
Y117520D01*
Y110827D02*
X312402D01*
Y-113583D02*
Y-106890D01*
X293898D02*
X312402D01*
X293898Y-113583D02*
Y-106890D01*
Y-113583D02*
X312402D01*
D44*
X47624Y171488D02*
X46791Y172321D01*
X45124D01*
X44291Y171488D01*
Y168156D01*
X45124Y167323D01*
X46791D01*
X47624Y168156D01*
X49290Y171488D02*
X50123Y172321D01*
X51789D01*
X52622Y171488D01*
Y170655D01*
X51789Y169822D01*
X50956D01*
X51789D01*
X52622Y168989D01*
Y168156D01*
X51789Y167323D01*
X50123D01*
X49290Y168156D01*
X47624Y-168079D02*
X46791Y-167246D01*
X45124D01*
X44291Y-168079D01*
Y-171411D01*
X45124Y-172244D01*
X46791D01*
X47624Y-171411D01*
X52622Y-172244D02*
X49290D01*
X52622Y-168912D01*
Y-168079D01*
X51789Y-167246D01*
X50123D01*
X49290Y-168079D01*
X273622Y-120002D02*
Y-125000D01*
X276121D01*
X276954Y-124167D01*
Y-120835D01*
X276121Y-120002D01*
X273622D01*
X278620D02*
X281953D01*
Y-120835D01*
X278620Y-124167D01*
Y-125000D01*
X373031Y-49136D02*
X376364D01*
X374698D01*
Y-54134D01*
X378030Y-49136D02*
X381362Y-54134D01*
Y-49136D02*
X378030Y-54134D01*
X383028D02*
X384694D01*
X383861D01*
Y-49136D01*
X383028Y-49968D01*
X355695Y138857D02*
X354028D01*
X354861D01*
Y134691D01*
X354028Y133858D01*
X353195D01*
X352362Y134691D01*
X357361Y133858D02*
X359027D01*
X358194D01*
Y138857D01*
X357361Y138024D01*
X296260Y-97441D02*
Y-92443D01*
X298759D01*
X299592Y-93276D01*
Y-94942D01*
X298759Y-95775D01*
X296260D01*
X297926D02*
X299592Y-97441D01*
X301258D02*
X302924D01*
X302091D01*
Y-92443D01*
X301258Y-93276D01*
X305423Y-92443D02*
X308756D01*
Y-93276D01*
X305423Y-96608D01*
Y-97441D01*
X296260Y-81693D02*
Y-76695D01*
X298759D01*
X299592Y-77528D01*
Y-79194D01*
X298759Y-80027D01*
X296260D01*
X297926D02*
X299592Y-81693D01*
X301258D02*
X302924D01*
X302091D01*
Y-76695D01*
X301258Y-77528D01*
X308756Y-76695D02*
X307090Y-77528D01*
X305423Y-79194D01*
Y-80860D01*
X306257Y-81693D01*
X307923D01*
X308756Y-80860D01*
Y-80027D01*
X307923Y-79194D01*
X305423D01*
X296260Y126969D02*
Y131967D01*
X298759D01*
X299592Y131134D01*
Y129468D01*
X298759Y128635D01*
X296260D01*
X297926D02*
X299592Y126969D01*
X301258D02*
X302924D01*
X302091D01*
Y131967D01*
X301258Y131134D01*
X308756Y126969D02*
X305423D01*
X308756Y130301D01*
Y131134D01*
X307923Y131967D01*
X306257D01*
X305423Y131134D01*
X296260Y142717D02*
Y147715D01*
X298759D01*
X299592Y146882D01*
Y145216D01*
X298759Y144383D01*
X296260D01*
X297926D02*
X299592Y142717D01*
X301258D02*
X302924D01*
X302091D01*
Y147715D01*
X301258Y146882D01*
X305423Y142717D02*
X307090D01*
X306257D01*
Y147715D01*
X305423Y146882D01*
X296260Y-14764D02*
Y-9765D01*
X298759D01*
X299592Y-10599D01*
Y-12265D01*
X298759Y-13098D01*
X296260D01*
X297926D02*
X299592Y-14764D01*
X301258Y-10599D02*
X302091Y-9765D01*
X303757D01*
X304591Y-10599D01*
Y-11432D01*
X303757Y-12265D01*
X304591Y-13098D01*
Y-13931D01*
X303757Y-14764D01*
X302091D01*
X301258Y-13931D01*
Y-13098D01*
X302091Y-12265D01*
X301258Y-11432D01*
Y-10599D01*
X302091Y-12265D02*
X303757D01*
X296260Y-30512D02*
Y-25513D01*
X298759D01*
X299592Y-26346D01*
Y-28013D01*
X298759Y-28846D01*
X296260D01*
X297926D02*
X299592Y-30512D01*
X301258Y-25513D02*
X304591D01*
Y-26346D01*
X301258Y-29679D01*
Y-30512D01*
X296260Y75787D02*
Y80786D01*
X298759D01*
X299592Y79953D01*
Y78287D01*
X298759Y77454D01*
X296260D01*
X297926D02*
X299592Y75787D01*
X303757D02*
Y80786D01*
X301258Y78287D01*
X304591D01*
X296260Y60039D02*
Y65038D01*
X298759D01*
X299592Y64205D01*
Y62539D01*
X298759Y61705D01*
X296260D01*
X297926D02*
X299592Y60039D01*
X301258Y64205D02*
X302091Y65038D01*
X303757D01*
X304591Y64205D01*
Y63372D01*
X303757Y62539D01*
X302924D01*
X303757D01*
X304591Y61705D01*
Y60872D01*
X303757Y60039D01*
X302091D01*
X301258Y60872D01*
X196850Y2046D02*
Y-2953D01*
Y-454D01*
X200183D01*
Y2046D01*
Y-2953D01*
X205181Y1213D02*
X204348Y2046D01*
X202682D01*
X201849Y1213D01*
Y380D01*
X202682Y-454D01*
X204348D01*
X205181Y-1287D01*
Y-2120D01*
X204348Y-2953D01*
X202682D01*
X201849Y-2120D01*
X210179Y-2953D02*
X206847D01*
X210179Y380D01*
Y1213D01*
X209346Y2046D01*
X207680D01*
X206847Y1213D01*
X217520Y160510D02*
Y155512D01*
Y158011D01*
X220852D01*
Y160510D01*
Y155512D01*
X225850Y159677D02*
X225017Y160510D01*
X223351D01*
X222518Y159677D01*
Y158844D01*
X223351Y158011D01*
X225017D01*
X225850Y157178D01*
Y156345D01*
X225017Y155512D01*
X223351D01*
X222518Y156345D01*
X227516Y155512D02*
X229183D01*
X228349D01*
Y160510D01*
X227516Y159677D01*
X252953Y-132797D02*
Y-137795D01*
X255452D01*
X256285Y-136962D01*
Y-133630D01*
X255452Y-132797D01*
X252953D01*
X257951Y-133630D02*
X258784Y-132797D01*
X260450D01*
X261283Y-133630D01*
Y-134463D01*
X260450Y-135296D01*
X261283Y-136129D01*
Y-136962D01*
X260450Y-137795D01*
X258784D01*
X257951Y-136962D01*
Y-136129D01*
X258784Y-135296D01*
X257951Y-134463D01*
Y-133630D01*
X258784Y-135296D02*
X260450D01*
X252953Y92597D02*
Y87598D01*
X255452D01*
X256285Y88432D01*
Y91764D01*
X255452Y92597D01*
X252953D01*
X261283D02*
X259617Y91764D01*
X257951Y90098D01*
Y88432D01*
X258784Y87598D01*
X260450D01*
X261283Y88432D01*
Y89265D01*
X260450Y90098D01*
X257951D01*
X273622Y104408D02*
Y99410D01*
X276121D01*
X276954Y100242D01*
Y103575D01*
X276121Y104408D01*
X273622D01*
X281953D02*
X278620D01*
Y101909D01*
X280287Y102742D01*
X281120D01*
X281953Y101909D01*
Y100242D01*
X281120Y99410D01*
X279453D01*
X278620Y100242D01*
X204120Y-149758D02*
Y-146425D01*
X203287Y-145592D01*
X201621D01*
X200787Y-146425D01*
Y-149758D01*
X201621Y-150591D01*
X203287D01*
X202453Y-148924D02*
X204120Y-150591D01*
X203287D02*
X204120Y-149758D01*
X208285Y-150591D02*
Y-145592D01*
X205786Y-148091D01*
X209118D01*
X205104Y146502D02*
Y149835D01*
X204271Y150668D01*
X202605D01*
X201772Y149835D01*
Y146502D01*
X202605Y145669D01*
X204271D01*
X203438Y147335D02*
X205104Y145669D01*
X204271D02*
X205104Y146502D01*
X206770Y149835D02*
X207603Y150668D01*
X209269D01*
X210102Y149835D01*
Y149002D01*
X209269Y148169D01*
X208436D01*
X209269D01*
X210102Y147335D01*
Y146502D01*
X209269Y145669D01*
X207603D01*
X206770Y146502D01*
X252953Y-65868D02*
Y-70866D01*
X255452D01*
X256285Y-70033D01*
Y-66701D01*
X255452Y-65868D01*
X252953D01*
X260450Y-70866D02*
Y-65868D01*
X257951Y-68367D01*
X261283D01*
X273622Y-53073D02*
Y-58071D01*
X276121D01*
X276954Y-57238D01*
Y-53906D01*
X276121Y-53073D01*
X273622D01*
X278620Y-53906D02*
X279453Y-53073D01*
X281120D01*
X281953Y-53906D01*
Y-54739D01*
X281120Y-55572D01*
X280287D01*
X281120D01*
X281953Y-56405D01*
Y-57238D01*
X281120Y-58071D01*
X279453D01*
X278620Y-57238D01*
X252953Y24683D02*
Y19685D01*
X255452D01*
X256285Y20518D01*
Y23850D01*
X255452Y24683D01*
X252953D01*
X261283Y19685D02*
X257951D01*
X261283Y23017D01*
Y23850D01*
X260450Y24683D01*
X258784D01*
X257951Y23850D01*
X274606Y37479D02*
Y32480D01*
X277105D01*
X277939Y33313D01*
Y36646D01*
X277105Y37479D01*
X274606D01*
X279605Y32480D02*
X281271D01*
X280438D01*
Y37479D01*
X279605Y36646D01*
X205104Y6935D02*
Y10268D01*
X204271Y11101D01*
X202605D01*
X201772Y10268D01*
Y6935D01*
X202605Y6102D01*
X204271D01*
X203438Y7768D02*
X205104Y6102D01*
X204271D02*
X205104Y6935D01*
X206770Y6102D02*
X208436D01*
X207603D01*
Y11101D01*
X206770Y10268D01*
X205104Y-10978D02*
Y-7646D01*
X204271Y-6813D01*
X202605D01*
X201772Y-7646D01*
Y-10978D01*
X202605Y-11811D01*
X204271D01*
X203438Y-10145D02*
X205104Y-11811D01*
X204271D02*
X205104Y-10978D01*
X210102Y-11811D02*
X206770D01*
X210102Y-8479D01*
Y-7646D01*
X209269Y-6813D01*
X207603D01*
X206770Y-7646D01*
X34828Y33693D02*
X33995Y34526D01*
X32329D01*
X31496Y33693D01*
Y30361D01*
X32329Y29528D01*
X33995D01*
X34828Y30361D01*
X36494Y29528D02*
X38161D01*
X37328D01*
Y34526D01*
X36494Y33693D01*
X305118Y58148D02*
Y53150D01*
X308450D01*
X310117D02*
X311783D01*
X310949D01*
Y58148D01*
X310117Y57315D01*
X304134Y-32403D02*
Y-37402D01*
X307466D01*
X312464D02*
X309132D01*
X312464Y-34069D01*
Y-33236D01*
X311631Y-32403D01*
X309965D01*
X309132Y-33236D01*
X304134Y125077D02*
Y120079D01*
X307466D01*
X309132Y124244D02*
X309965Y125077D01*
X311631D01*
X312464Y124244D01*
Y123411D01*
X311631Y122578D01*
X310798D01*
X311631D01*
X312464Y121745D01*
Y120912D01*
X311631Y120079D01*
X309965D01*
X309132Y120912D01*
X304134Y-99332D02*
Y-104331D01*
X307466D01*
X311631D02*
Y-99332D01*
X309132Y-101831D01*
X312464D01*
X18096Y132118D02*
X17263Y132951D01*
X15597D01*
X14764Y132118D01*
Y128786D01*
X15597Y127953D01*
X17263D01*
X18096Y128786D01*
X19762Y132118D02*
X20595Y132951D01*
X22261D01*
X23094Y132118D01*
Y131285D01*
X22261Y130452D01*
X23094Y129619D01*
Y128786D01*
X22261Y127953D01*
X20595D01*
X19762Y128786D01*
Y129619D01*
X20595Y130452D01*
X19762Y131285D01*
Y132118D01*
X20595Y130452D02*
X22261D01*
X12190Y-102134D02*
X11357Y-101301D01*
X9691D01*
X8858Y-102134D01*
Y-105466D01*
X9691Y-106299D01*
X11357D01*
X12190Y-105466D01*
X13857D02*
X14690Y-106299D01*
X16356D01*
X17189Y-105466D01*
Y-102134D01*
X16356Y-101301D01*
X14690D01*
X13857Y-102134D01*
Y-102967D01*
X14690Y-103800D01*
X17189D01*
X4316Y40583D02*
X3483Y41416D01*
X1817D01*
X984Y40583D01*
Y37250D01*
X1817Y36417D01*
X3483D01*
X4316Y37250D01*
X5983Y36417D02*
X7649D01*
X6816D01*
Y41416D01*
X5983Y40583D01*
X10148D02*
X10981Y41416D01*
X12647D01*
X13480Y40583D01*
Y37250D01*
X12647Y36417D01*
X10981D01*
X10148Y37250D01*
Y40583D01*
X106679Y68142D02*
X105846Y68975D01*
X104180D01*
X103347Y68142D01*
Y64809D01*
X104180Y63976D01*
X105846D01*
X106679Y64809D01*
X108345Y63976D02*
X110011D01*
X109178D01*
Y68975D01*
X108345Y68142D01*
X115842Y68975D02*
X112510D01*
Y66476D01*
X114176Y67309D01*
X115009D01*
X115842Y66476D01*
Y64809D01*
X115009Y63976D01*
X113343D01*
X112510Y64809D01*
X168687Y-75559D02*
X167853Y-74726D01*
X166187D01*
X165354Y-75559D01*
Y-78891D01*
X166187Y-79724D01*
X167853D01*
X168687Y-78891D01*
X170353Y-79724D02*
X172019D01*
X171186D01*
Y-74726D01*
X170353Y-75559D01*
X177850Y-74726D02*
X176184Y-75559D01*
X174518Y-77225D01*
Y-78891D01*
X175351Y-79724D01*
X177017D01*
X177850Y-78891D01*
Y-78058D01*
X177017Y-77225D01*
X174518D01*
X168687Y78969D02*
X167853Y79801D01*
X166187D01*
X165354Y78969D01*
Y75636D01*
X166187Y74803D01*
X167853D01*
X168687Y75636D01*
X170353Y74803D02*
X172019D01*
X171186D01*
Y79801D01*
X170353Y78969D01*
X174518Y79801D02*
X177850D01*
Y78969D01*
X174518Y75636D01*
Y74803D01*
X333051Y117929D02*
Y116263D01*
Y117096D01*
X338050D01*
X337216Y117929D01*
X343551Y13097D02*
Y16429D01*
X346883Y13097D01*
X347716D01*
X348550Y13930D01*
Y15596D01*
X347716Y16429D01*
Y11431D02*
X348550Y10598D01*
Y8932D01*
X347716Y8099D01*
X344384D01*
X343551Y8932D01*
Y10598D01*
X344384Y11431D01*
X347716D01*
X94942Y179134D02*
Y182466D01*
X93276Y180800D02*
X96608D01*
X70336Y154528D02*
Y157860D01*
X68669Y156194D02*
X72002D01*
X50650Y51181D02*
Y54513D01*
X48984Y52847D02*
X52316D01*
X70336Y-52165D02*
Y-48833D01*
X68669Y-50499D02*
X72002D01*
X94942Y-37402D02*
Y-34069D01*
X93276Y-35735D02*
X96608D01*
D45*
X281398Y-110236D02*
D03*
Y114173D02*
D03*
Y-43307D02*
D03*
Y47244D02*
D03*
D46*
X324676Y66929D02*
D03*
M02*
